<?xml version="1.0" encoding="utf-8"?><svg xmlns="http://www.w3.org/2000/svg" xmlns:xlink="http://www.w3.org/1999/xlink" width="1193" height="350" preserveAspectRatio="xMidYMid" viewBox="0 0 1193 350" style="z-index:1;display:block;animation-play-state:paused" ><g transform="" style="animation-play-state:paused" ><linearGradient id="lg-0.9705193496494882" x1="0" x2="1" y1="0" y2="0" style="animation-play-state:paused" ><stop stop-color="#00946d" offset="0" style="animation-play-state:paused" ></stop>

  
<stop stop-color="#c2f400" offset="1" style="animation-play-state:paused" ></stop></linearGradient>
<path d="M0 0M0 327.6362609863281Q99.41666412353516 326.3359375 198.8333282470703 325.3627624511719T397.6666564941406 310.6986389160156T596.5 272.7626037597656T795.3333129882812 276.06341552734375T994.1666870117188 253.0141143798828T1193 237.56175231933594L1193 114.40448760986328Q1093.5833740234375 99.20004272460938 994.1666870117188 92.43678283691406T795.3333129882812 81.06072235107422T596.5 63.42556381225586T397.6666564941406 58.518531799316406T198.8333282470703 30.568235397338867T0 28.251676559448242z" fill="url(#lg-0.9705193496494882)" opacity="0.4" style="opacity:0.4;animation-play-state:paused" ></path>
<path d="M0 0M0 296.0542907714844Q99.41666412353516 314.096435546875 198.8333282470703 304.35107421875T397.6666564941406 288.5361328125T596.5 273.5747985839844T795.3333129882812 282.7919616699219T994.1666870117188 243.0204620361328T1193 244.20611572265625L1193 102.25898742675781Q1093.5833740234375 101.2813949584961 994.1666870117188 97.83951568603516T795.3333129882812 95.56442260742188T596.5 77.67031860351562T397.6666564941406 47.36180114746094T198.8333282470703 55.635013580322266T0 25.454822540283203z" fill="url(#lg-0.9705193496494882)" opacity="0.4" style="opacity:0.4;animation-play-state:paused" ></path>
<path d="M0 0M0 297.5912780761719Q99.41666412353516 290.3595275878906 198.8333282470703 286.5246887207031T397.6666564941406 305.14691162109375T596.5 279.9742736816406T795.3333129882812 269.9618835449219T994.1666870117188 278.14990234375T1193 235.87489318847656L1193 110.64429473876953Q1093.5833740234375 73.75599670410156 994.1666870117188 67.16902160644531T795.3333129882812 66.02964782714844T596.5 67.37641143798828T397.6666564941406 68.15789031982422T198.8333282470703 31.086063385009766T0 48.67670440673828z" fill="url(#lg-0.9705193496494882)" opacity="0.4" style="opacity:0.4;animation-play-state:paused" ></path></g></svg>