<svg xmlns="http://www.w3.org/2000/svg" xmlns:xlink="http://www.w3.org/1999/xlink" width="1598.482" height="1598.51" viewBox="0 0 1598.482 1598.51">
  <defs>
    <filter id="Path_231" x="1115.393" y="304.573" width="102.354" height="114.353" filterUnits="userSpaceOnUse">
      <feOffset dy="3" input="SourceAlpha"/>
      <feGaussianBlur stdDeviation="5" result="blur"/>
      <feFlood flood-color="#214f27"/>
      <feComposite operator="in" in2="blur"/>
      <feComposite in="SourceGraphic"/>
    </filter>
    <filter id="Path_232" x="1076.553" y="336.895" width="77.549" height="72.451" filterUnits="userSpaceOnUse">
      <feOffset dy="3" input="SourceAlpha"/>
      <feGaussianBlur stdDeviation="5" result="blur-2"/>
      <feFlood flood-color="#214f27"/>
      <feComposite operator="in" in2="blur-2"/>
      <feComposite in="SourceGraphic"/>
    </filter>
    <filter id="Path_233" x="699.596" y="424.28" width="72.482" height="57" filterUnits="userSpaceOnUse">
      <feOffset dy="3" input="SourceAlpha"/>
      <feGaussianBlur stdDeviation="5" result="blur-3"/>
      <feFlood flood-color="#214f27"/>
      <feComposite operator="in" in2="blur-3"/>
      <feComposite in="SourceGraphic"/>
    </filter>
    <filter id="Path_234" x="670.531" y="435.409" width="46.482" height="48.773" filterUnits="userSpaceOnUse">
      <feOffset dy="3" input="SourceAlpha"/>
      <feGaussianBlur stdDeviation="5" result="blur-4"/>
      <feFlood flood-color="#214f27"/>
      <feComposite operator="in" in2="blur-4"/>
      <feComposite in="SourceGraphic"/>
    </filter>
    <filter id="Path_235" x="0" y="0" width="1598.482" height="1598.51" filterUnits="userSpaceOnUse">
      <feOffset dy="3" input="SourceAlpha"/>
      <feGaussianBlur stdDeviation="5" result="blur-5"/>
      <feFlood flood-color="#214f27"/>
      <feComposite operator="in" in2="blur-5"/>
      <feComposite in="SourceGraphic"/>
    </filter>
  </defs>
  <g id="global" transform="translate(15 12)">
    <g id="Group_698" data-name="Group 698" transform="translate(0 0)">
      <g transform="matrix(1, 0, 0, 1, -15, -12)" filter="url(#Path_231)">
        <path id="Path_231-2" data-name="Path 231" d="M62.126,53.731l1.516,11.645L46.191,68.989,43.868,93.795h20.9l27.806-2.677,14.354-17.064L91.673,68.118l-8.355-9.613L70.771,38.183l-6-28.741-23.58,4.806L34.578,24.377V35.8L45.933,43.57Z" transform="translate(1095.81 307.13)" fill="#fff"/>
      </g>
      <g transform="matrix(1, 0, 0, 1, -15, -12)" filter="url(#Path_232)">
        <path id="Path_232-2" data-name="Path 232" d="M79.663,31.96l1.258-15.548L67.083,10.444,47.728,14.928,33.374,37.959V52.895H50.116Z" transform="translate(1058.18 338.45)" fill="#fff"/>
      </g>
      <g transform="matrix(1, 0, 0, 1, -15, -12)" filter="url(#Path_233)">
        <path id="Path_233-2" data-name="Path 233" d="M46.558,13.314,42.3,24.282H21.688V34.927h4.9s.29,2.258.71,5.226l12.645-1.064,7.9-4.9,2.064-9.9,10.226-.871,4.032-8.322-9.387-1.935Z" transform="translate(692.91 423.13)" fill="#fff"/>
      </g>
      <g transform="matrix(1, 0, 0, 1, -15, -12)" filter="url(#Path_234)">
        <path id="Path_234-2" data-name="Path 234" d="M21.593,21.853l-.806,10.419,14.935-1.258L37.27,20.562,28.3,13.5Z" transform="translate(664.74 433.91)" fill="#fff"/>
      </g>
      <g transform="matrix(1, 0, 0, 1, -15, -12)" filter="url(#Path_235)">
        <path id="Path_235-2" data-name="Path 235" d="M1568.316,776.142c-.226-22.935-1.387-45.709-3.548-68.127a779.489,779.489,0,0,0-51.9-213.543c-2-5-3.839-10.064-5.968-15A785.184,785.184,0,0,0,1359.805,252.22c-4.032-4.322-8.129-8.58-12.226-12.774-11.58-12.032-23.483-23.774-35.806-35.031C1172.358,77.482,987.2,0,784.239,0,579.566,0,393.087,78.869,253.284,207.737a793.553,793.553,0,0,0-89.675,97.9C61.16,438.151,0,604.146,0,784.239c0,432.473,351.83,784.271,784.271,784.271,304.186,0,568.276-174.189,698.273-427.989a776.793,776.793,0,0,0,64.031-172.705c3.71-15.387,6.9-30.838,9.677-46.483a784.273,784.273,0,0,0,12.226-137.093C1568.51,781.529,1568.349,778.852,1568.316,776.142ZM1420.707,462.7l4.548-5.1c5.968,11.58,11.548,23.354,16.87,35.289l-7.419-.29-14,1.935Zm-113.32-136.835.129-35.031q18.484,19.6,35.548,40.451l-14.129,21.032-49.386-.452-3.1-10.29ZM361.346,238.8v-1.323h15.709l1.355-5.387h25.709v11.226l-7.387,9.871H361.314l.032-14.387Zm25.1,35s15.709-2.677,17.064-2.677,0,15.677,0,15.677l-35.418,2.226-6.742-8.064ZM1470.673,585.115h-57.386l-34.967-26.032-36.806,3.581v22.451H1329.87l-12.58-8.968-63.74-16.161V518.7l-80.772,6.29-25.032,13.451h-32.064l-15.709-1.581-38.935,21.612v40.676L981.46,656.565l6.613,24.516H1004.2l-4.226,23.354L988.621,708.6l-.613,61.031,68.772,78.321h29.935l1.806-4.774h53.805l15.516-14.354h30.515l16.741,16.774,45.483,4.71-6.032,60.482,50.483,89.127-26.58,50.805,1.807,23.935,20.935,20.871v57.547l27.483,36.967v47.805h23.741c-132.126,162.222-333.218,266.123-558.212,266.123C387.378,1504,64.515,1181.1,64.515,784.239a716.021,716.021,0,0,1,57.45-281.67V480.117l25.741-31.257q13.4-25.306,28.741-49.354l1.161,13.064-29.87,36.289c-9.258,17.483-17.9,35.354-25.741,53.708v40.967l29.9,14.387v56.934l28.677,48.934,23.322,3.581,3-16.774-27.515-42.451L174,566.889h16.129l6.806,42.451L236.7,667.371l-10.258,18.741,25.29,38.676,62.8,15.548V730.176l25.128,3.581-2.387,17.935,19.741,3.613,30.483,8.322L430.57,812.69l55,4.161,5.387,44.87-37.644,26.322-1.774,40.064-5.387,24.516,54.45,68.16,4.161,23.354s19.741,5.355,22.161,5.355c2.387,0,44.257,31.709,44.257,31.709V1204.39l14.935,4.193-10.161,56.837,25.128,33.515-4.645,56.321,33.193,58.353,42.612,37.225,42.838.774,4.193-13.774-31.483-26.516,1.806-13.161,5.645-16.129,1.194-16.451-21.29-.645L664.4,1351.451l17.677-17,2.387-12.838-19.741-5.645,1.161-11.935,28.128-4.258,42.773-20.548,14.355-26.322,44.87-57.418-10.193-44.9,13.774-23.9,41.257,1.258,27.774-22,8.968-86.643L908.4,980.17l5.387-25.128-28.1-9L867.14,915.623l-63.385-.645L753.5,895.817l-2.387-35.838-16.774-29.322-45.451-.677-26.257-41.225-23.322-11.387-1.194,12.58-42.451,2.516L580.114,770.82l-44.289-9-36.483,42.16-57.418-9.742-4.161-64.708-41.9-7.161,16.806-31.741L407.861,672.4,352.8,709.209l-34.644-4.226L305.8,677.919l7.548-27.9,19.1-35.193,43.967-22.258,84.9-.032-.226,25.9L491.6,632.63l-2.419-44.257,22-22.129,44.386-29.161,3.032-20.516L602.856,470.5l47.063-26.064-4.161-3.419,31.87-30,11.677,3.1,5.355,6.71,12.1-13.419,2.968-1.323-13.258-1.871-13.451-4.484v-12.9l7.129-5.839h15.709l7.193,3.161,6.226,12.58,7.613-1.161v-1.1l2.194.742,22.064-3.387,3.129-10.774,12.58,3.161v11.677l-11.677,8.032h.032l1.71,12.806,39.967,12.322.1.484,9.193-.774.613-17.322L775.11,397.023,773.3,388.7l26.29-8.967,1.161-25.161-27.483-16.741-1.806-42.418-37.676,18.516H720.047l3.613-32.29-51.289-12.1-21.225,16.032v48.9l-38.16,12.1-15.29,31.87-16.58,2.677V340.347l-35.87-4.968L527.31,323.7l-7.226-26.419,64.16-37.547,31.386-9.548,3.161,21.1,17.483-.9,1.355-10.613,18.29-2.613.323-3.71-7.871-3.258-1.806-11.226,22.483-1.9,13.58-14.129.742-1.032.161.065,4.129-4.258,47.257-5.968,20.9,17.741-54.805,29.193,69.74,16.451,9.032-23.322H810.27l10.774-20.322L799.5,226.091V200.382l-67.579-29.935-46.644,5.387-26.322,13.774,1.806,33.483L633.242,218.9l-4.226-18.516,26.354-23.935-47.838-2.387-13.742,4.161-5.968,16.129,17.935,3.032-3.58,17.935L571.7,217.124l-4.774,11.935L522.7,230.285s-1.226-25.1-3-25.1,34.677-.613,34.677-.613l26.354-25.741-14.387-7.193-19.129,18.58-31.741-1.806-19.129-26.322H455.666L413.216,193.8h38.9l3.548,11.387-10.1,9.387,43.063,1.194,6.581,15.548-48.483-1.806-2.355-11.967-30.483-6.58L397.732,202l-36.289.29a715.719,715.719,0,0,1,422.8-137.771c182,0,348.282,68.031,475.15,179.8l-8.548,15.29-33.193,13-14,15.193,3.226,17.709L1224,307.9l10.322,25.806,29.548-11.9,4.871,34.515h-8.9l-24.258-3.581-26.9,4.516-26.031,36.773-37.225,5.839-5.387,31.87,15.709,3.71-4.548,20.483-36.967-7.419-33.9,7.419-7.193,18.871,5.871,39.612,19.9,9.322,33.386-.194,22.548-2.032,6.871-17.935,35.225-45.773,23.193,4.742,22.838-20.645,4.258,16.129,56.192,37.9-6.871,9.226-25.322-1.355,9.742,13.806,15.58,3.419,18.258-7.613-.387-22,8.1-4.064-6.516-6.9-37.483-20.9-9.871-27.774h31.161l9.968,9.871,26.838,23.128,1.129,27.967,27.806,29.612,10.354-40.58,19.258-10.516,3.613,33.193,18.806,20.645,37.515-.645q10.887,28.016,19.483,57.063Zm-1042.91-228.8,18.838-8.968,17.032,4.064-5.871,22.87-18.387,5.839Zm99.965,53.837v14.806H484.7l-16.129-4.484,4.032-10.322,20.677-8.548h28.257v8.548ZM547.535,430.8V445.15l-10.774,6.935-13.419,2.484V430.8Zm-12.129-5.839V407.893l14.806,13.484Zm6.742,34.515V473.44l-10.29,10.322h-22.87l3.581-15.677,10.806-.935,2.226-5.387ZM485.182,430.8h23.774l-30.483,42.612-12.58-6.742,2.71-17.935Zm97.352,23.774V468.5h-22.87l-6.258-9.032V446.505h1.806Zm-21.129-19.161,6.516-6.839,11,6.839-8.806,7.258Zm920.945,186.028,2.258-2.645c.935,4.064,1.935,8.129,2.839,12.258Z" transform="translate(15 12)" fill="#fff"/>
      </g>
      <path id="Path_236" data-name="Path 236" d="M3.782,45.172V67.623C11.621,49.3,20.265,31.431,29.523,13.915Z" transform="translate(118.215 434.945)" fill="#fff"/>
    </g>
  </g>
</svg>
