<svg id="Layer_1_copy" height="512" viewBox="0 0 64 64" width="512" xmlns="http://www.w3.org/2000/svg" data-name="Layer 1 copy"><path d="m47.5 41-1 8-8 4-2 3-8 6v-6l-2-4h6v-4l6-2-1-5-.1-.9-.9-8.1-7.71-8.41-3.29-3.59 3-4-1-3-4 1-6-2-1-6 11-1 1-3h7.83l.17 4 9.5 3-8 5-3.5 5 8 11 .95 2.1z" fill="#3bb03c"/><path d="m44.65 47.69-7 3.52a2 2 0 0 0 -.77.68l-1.88 2.72-4.5 3.39v-2a1.94 1.94 0 0 0 -.21-.89l-.55-1.11h2.76a2 2 0 0 0 2-2v-2.56l4.63-1.54a2 2 0 0 0 1.33-2.29l-.32-1.61-.66-3.31-1-8.91a2 2 0 0 0 -.48-1.13l-6.51-7.11-.58-.64-2.78-3 2-2.67a2 2 0 0 0 .3-1.83l-1-3a2 2 0 0 0 -2.43-1.34l-3.44.86-4.31-1.44-.42-2.68 8.85-.8a2 2 0 0 0 1.72-1.37l.54-1.63h4.48l.08 2.08a2 2 0 0 0 1.4 1.83l1.44.45 1.93.64 2 .63-4.32 2.7a2.17 2.17 0 0 0 -.58.55l-3.27 4.63-.24.34a2 2 0 0 0 0 2.33l.22.3 7.68 10.52 2.36 5.17 2.33 5.13z" fill="#3bb03c"/><path d="m36.83 10-1.49 4.31-.24.69-.35.16-4.65 2.04.78 5.7-2.09.69-3.29-3.59 3-4-1-3-4 1-6-2-1-6 11-1 1-3h7.83l.17 4 .18 2.15z" fill="#bbd036"/><path d="m47.5 41-1 8-8 4-2 3-8 6v-6l-2-4h6v-4l6-2-1-5-.1-.9 1.89-1.16 2.04-1.27v-4.84l.23-.08 1.89-.65z" fill="#156015"/><g fill="#3bb03c"><path d="m45 42h-1a1 1 0 0 1 0-2h1a1 1 0 0 1 0 2z"/><path d="m32 11h-1a1 1 0 0 1 0-2h1a1 1 0 0 1 0 2z"/><path d="m36 11h-1a1 1 0 0 1 0-2h1a1 1 0 0 1 0 2z"/></g></svg>