<svg xmlns="http://www.w3.org/2000/svg" width="25.703" height="40.977" viewBox="0 0 25.703 40.977">
  <g id="Group_649" data-name="Group 649" transform="translate(-9077.587 4293.477)">
    <g id="person" transform="translate(9078.597 -4292.477)">
      <circle id="Ellipse_945" data-name="Ellipse 945" cx="5.922" cy="5.922" r="5.922" transform="translate(5.919)" fill="#5ec39c" stroke="#fff" stroke-width="2"/>
      <path id="Path_153" data-name="Path 153" d="M103.724,238.222a16.164,16.164,0,0,0-3.5-10.194,10.656,10.656,0,0,0-16.688,0,16.16,16.16,0,0,0-3.5,10.181,28.853,28.853,0,0,0,11.842,3.019A26.349,26.349,0,0,0,103.724,238.222Z" transform="translate(-80.04 -211.079)" fill="#5ec39c" stroke="#fff" stroke-width="2"/>
    </g>
    <path id="Path_154" data-name="Path 154" d="M1101.273,566c0,2.166-4.782,11-5.587,11s-5.587-8.835-5.587-11S1101.273,563.829,1101.273,566Z" transform="translate(7995.027 -4829.997)" fill="#3f4777" stroke="#fff" stroke-width="1"/>
  </g>
</svg>
