<svg xmlns="http://www.w3.org/2000/svg" width="25.684" height="39.288" viewBox="0 0 25.684 39.288">
  <g id="Group_648" data-name="Group 648" transform="translate(-9280.099 4608.9)">
    <g id="Group_625" data-name="Group 625" transform="translate(9281.1 -4607.9)">
      <g id="Group_622" data-name="Group 622" transform="translate(0 0)">
        <g id="Group_618" data-name="Group 618" transform="translate(0 0)">
          <g id="Group_325" data-name="Group 325" transform="translate(0 0)">
            <path id="Path_40" data-name="Path 40" d="M1113.783,570.9c0,5.414-10.137,27.492-11.842,27.492-1.723,0-11.841-22.079-11.841-27.492s5.3-9.8,11.841-9.8C1108.486,561.085,1113.783,565.482,1113.783,570.9Z" transform="translate(-1090.1 -561.1)" fill="#5d69ff" stroke="#fff" stroke-width="2"/>
          </g>
        </g>
      </g>
      <g id="surface1" transform="translate(5.399 5.296)">
        <path id="Path_152" data-name="Path 152" d="M4.22,8.2a5.2,5.2,0,1,1,1.6,1.472l-3.833,3.81a1.088,1.088,0,0,1-1.578-1.5l.04-.04Zm4.246.355A3.352,3.352,0,1,0,5.115,5.2,3.353,3.353,0,0,0,8.466,8.558Zm0,0" transform="translate(-0.109 0)" fill="#fff"/>
      </g>
    </g>
  </g>
</svg>
