<svg xmlns="http://www.w3.org/2000/svg" width="25.715" height="39.338" viewBox="0 0 25.715 39.338">
  <g id="Group_636" data-name="Group 636" transform="translate(-8917.1 4109.9)">
    <g id="Group_626" data-name="Group 626" transform="translate(8918.1 -4108.9)">
      <g id="Group_619" data-name="Group 619" transform="translate(0 0)">
        <g id="Group_618" data-name="Group 618">
          <g id="Group_325" data-name="Group 325">
            <path id="Path_40" data-name="Path 40" d="M1113.815,570.909c0,5.421-10.151,27.529-11.857,27.529-1.725,0-11.857-22.108-11.857-27.529s5.3-9.809,11.857-9.809C1108.51,561.085,1113.815,565.488,1113.815,570.909Z" transform="translate(-1090.1 -561.1)" fill="#59b9b5" stroke="#fff" stroke-width="2"/>
          </g>
        </g>
        <g id="medical" transform="translate(4.384 3.499)">
          <path id="Path_143" data-name="Path 143" d="M161.175,289.916l-.25-.709a2.749,2.749,0,0,1-1.176.24,2.689,2.689,0,0,1-1.188-.251l-.343.705a.2.2,0,0,1-.12.1l-.2.063a1.78,1.78,0,0,0,.454.833,1.93,1.93,0,0,0,2.87-.068,4.005,4.005,0,0,1,.305-.719c-.08-.025-.155-.05-.225-.074A.2.2,0,0,1,161.175,289.916Z" transform="translate(-153.739 -280.49)" fill="#fff"/>
          <path id="Path_144" data-name="Path 144" d="M42.3,320.188a4.047,4.047,0,0,1,.034-.521,2.288,2.288,0,0,1-1.323.4,2.263,2.263,0,0,1-1.694-.735,2.221,2.221,0,0,1-.548-1l-.23.065c-1.576.442-3.538.992-3.538,2.689v2.123c0,.248.115.595.3.595h9.262A4.03,4.03,0,0,1,42.3,320.188Z" transform="translate(-35 -308.644)" fill="#fff"/>
          <path id="Path_145" data-name="Path 145" d="M129.832,34.9c.075.005.149.012.221.018.619.055,1.029.092,1.42-.77a.2.2,0,0,1,.367-.007l.02.039a3.011,3.011,0,0,1,.542,1.27c.018-.23.029-.423.029-.5s0-.158,0-.241a2.3,2.3,0,0,0-.56-1.86,2.935,2.935,0,0,0-2.167-.85,2.9,2.9,0,0,0-2.1.95l-.057.064a2.489,2.489,0,0,0-.7,2.056,4.347,4.347,0,0,0,.1.55,2.213,2.213,0,0,1,.478-1.141,1.071,1.071,0,0,1,.814-.35c.3,0,.406.3.506.588.153.441.323.932,1.036.975-.367-.412-.3-.56-.273-.631A.291.291,0,0,1,129.832,34.9Z" transform="translate(-123.74 -31.996)" fill="#fff"/>
          <path id="Path_146" data-name="Path 146" d="M123.019,110.753a.2.2,0,0,1,.112-.031h.006c.335,0,.725-.5.873-1.125a.388.388,0,0,0-.119-.44.2.2,0,0,0-.23.072.2.2,0,0,1-.172.129h-.018a.2.2,0,0,1-.2-.186,6.643,6.643,0,0,0-.522-2.166,1.461,1.461,0,0,1-1.665.7h-.009a4.1,4.1,0,0,0,.382.4.2.2,0,0,1-.109.351,1.536,1.536,0,0,1-1.914-1.222,1.356,1.356,0,0,0-.134-.315.669.669,0,0,0-.5.221,1.993,1.993,0,0,0-.4,1.122,4.69,4.69,0,0,0-.022.751.234.234,0,0,1-.38.243c-.089-.094-.185-.124-.263-.082a.372.372,0,0,0-.111.424c.147.623.538,1.125.873,1.125h.01a.2.2,0,0,1,.2.2,2.274,2.274,0,0,0,.931,1.711,2.174,2.174,0,0,0,1.179.3,2.219,2.219,0,0,0,1.182-.3l0,0a2.212,2.212,0,0,0,.926-1.713A.2.2,0,0,1,123.019,110.753Z" transform="translate(-114.804 -104.383)" fill="#fff"/>
          <path id="Path_147" data-name="Path 147" d="M266.279,266.158a3.619,3.619,0,1,0,3.619,3.619A3.619,3.619,0,0,0,266.279,266.158Zm2.045,4.158a.271.271,0,0,1-.271.271H266.97V271.7a.271.271,0,0,1-.271.271h-.948a.271.271,0,0,1-.271-.271v-1.117h-1.117a.271.271,0,0,1-.271-.271v-.948a.271.271,0,0,1,.271-.271h1.117v-1.083a.271.271,0,0,1,.271-.271h.948a.271.271,0,0,1,.271.271V269.1h1.083a.271.271,0,0,1,.271.271Z" transform="translate(-254.955 -258.233)" fill="#fff"/>
          <path id="Path_148" data-name="Path 148" d="M319.065,326.083V325h-.677v1.083a.271.271,0,0,1-.271.271H317v.677h1.117a.271.271,0,0,1,.271.271v1.117h.677V327.3a.271.271,0,0,1,.271-.271h1.083v-.677h-1.083A.271.271,0,0,1,319.065,326.083Z" transform="translate(-307.456 -315.083)" fill="#fff"/>
        </g>
      </g>
    </g>
  </g>
</svg>
