<svg xmlns="http://www.w3.org/2000/svg" width="29" height="29" viewBox="0 0 29 29">
  <g id="Group_654" data-name="Group 654" transform="translate(-8806 4321.245)">
    <g id="Group_655" data-name="Group 655" transform="translate(8803 -4282.727)">
      <circle id="Ellipse_947" data-name="Ellipse 947" cx="14.5" cy="14.5" r="14.5" transform="translate(3 -38.519)" fill="rgba(153,118,177,0.2)"/>
    </g>
    <g id="Group_653" data-name="Group 653" transform="translate(8808 -4319.727)">
      <g id="Ellipse_947-2" data-name="Ellipse 947" transform="translate(0 0.481)" fill="rgba(153,118,177,0.7)" stroke="rgba(255,255,255,0.3)" stroke-width="2">
        <circle cx="12.5" cy="12.5" r="12.5" stroke="none"/>
        <circle cx="12.5" cy="12.5" r="11.5" fill="none"/>
      </g>
      <g id="problem" transform="translate(5.341 5.484)">
        <path id="Path_156" data-name="Path 156" d="M15.057,8.846,10.474,1.5a3.187,3.187,0,0,0-5.41,0L.481,8.846a3.187,3.187,0,0,0,2.705,4.871h9.165a3.187,3.187,0,0,0,2.705-4.871Zm-2.705,3.961H3.187A2.277,2.277,0,0,1,1.254,9.328L5.836,1.984a2.277,2.277,0,0,1,3.865,0l4.583,7.344a2.277,2.277,0,0,1-1.933,3.479Zm0,0" transform="translate(0)" fill="#fff"/>
        <path id="Path_157" data-name="Path 157" d="M67.109,60.645a1.367,1.367,0,0,0-2.321,0l-4.582,7.344a1.366,1.366,0,0,0,1.16,2.087h9.165a1.366,1.366,0,0,0,1.16-2.087Zm-.705,7.58h-.91v-.91h.91Zm0-1.821h-.91V63.187h.91Zm0,0" transform="translate(-58.179 -58.179)" fill="#fff"/>
      </g>
    </g>
  </g>
</svg>
