<svg xmlns="http://www.w3.org/2000/svg" width="29" height="29" viewBox="0 0 29 29">
  <g id="Group_679" data-name="Group 679" transform="translate(-8848 4205)">
    <g id="Group_677" data-name="Group 677" transform="translate(22 -19)">
      <g id="Group_676" data-name="Group 676" transform="translate(20 135.245)">
        <g id="Group_655" data-name="Group 655" transform="translate(8803 -4282.727)">
          <circle id="Ellipse_947" data-name="Ellipse 947" cx="14.5" cy="14.5" r="14.5" transform="translate(3 -38.519)" fill="rgba(119,95,255,0.2)"/>
        </g>
        <g id="Group_653" data-name="Group 653" transform="translate(8808 -4319.727)">
          <g id="Ellipse_947-2" data-name="Ellipse 947" transform="translate(0 0.481)" fill="rgba(119,95,255,0.7)" stroke="rgba(255,255,255,0.3)" stroke-width="2">
            <circle cx="12.5" cy="12.5" r="12.5" stroke="none"/>
            <circle cx="12.5" cy="12.5" r="11.5" fill="none"/>
          </g>
          <g id="Group_694" data-name="Group 694" transform="translate(-1)">
            <path id="Path_208" data-name="Path 208" d="M164.367,12.949a5.11,5.11,0,1,0,5.11,5.11A5.116,5.116,0,0,0,164.367,12.949Zm0,1.586a3.5,3.5,0,0,1,1.866.537l-4.853,4.853a3.522,3.522,0,0,1,2.987-5.39Zm0,7.048a3.5,3.5,0,0,1-1.866-.537l4.853-4.853a3.522,3.522,0,0,1-2.987,5.39Z" transform="translate(-148.963 -7.37)" fill="#ff5a5a"/>
            <path id="Path_211" data-name="Path 211" d="M181.911,385.377a1.873,1.873,0,0,0-1.248,1.763v2.131a1.232,1.232,0,0,0,.269.452,1.185,1.185,0,0,0,.457.247h5.36V387.14a1.873,1.873,0,0,0-1.247-1.763,3.165,3.165,0,0,1-3.591,0Z" transform="translate(-173.644 -369.766)" fill="#fff"/>
            <path id="Path_212" data-name="Path 212" d="M209.383,262.988a1.964,1.964,0,0,0,1.962-1.962v-.547a1.962,1.962,0,1,0-3.924,0v.547A1.964,1.964,0,0,0,209.383,262.988Z" transform="translate(-199.321 -248.03)" fill="#fff"/>
          </g>
        </g>
      </g>
    </g>
  </g>
</svg>
