<svg xmlns="http://www.w3.org/2000/svg" width="25.055" height="25.053" viewBox="0 0 25.055 25.053">
  <g id="Group_657" data-name="Group 657" transform="translate(-8840.733 4244.209)">
    <g id="vietnam" transform="translate(8840.733 -4244.209)">
      <ellipse id="Ellipse_948" data-name="Ellipse 948" cx="11.486" cy="11.399" rx="11.486" ry="11.399" transform="translate(1.041 1.128)" fill="#d80027"/>
      <path id="Path_160" data-name="Path 160" d="M187.317,122.251l1.054,3.511h3.41l-2.759,2.17,1.054,3.512-2.758-2.17-2.758,2.17,1.054-3.512-2.759-2.17h3.41Z" transform="translate(-174.79 -114.622)" fill="#ffda44"/>
      <path id="Path_161" data-name="Path 161" d="M91.457,21.706a12.531,12.531,0,1,0,1.949.151,12.664,12.664,0,0,0-1.949-.151M101.55,38.789a11.058,11.058,0,1,1,.646-1.852,11.187,11.187,0,0,1-.646,1.852c-.148.327.109-.244,0,0" transform="translate(-78.935 -21.706)" fill="#fff"/>
    </g>
  </g>
</svg>
